<mxfile host="app.diagrams.net" modified="2021-01-28T16:05:31.406Z" agent="5.0 (Macintosh; Intel Mac OS X 10_15_7) AppleWebKit/605.1.15 (KHTML, like Gecko) Version/13.1.3 Safari/605.1.15" etag="K5lpm92YI8yirtFCCIWb" version="14.2.7" type="github">
  <diagram id="TMXSOWhYbLECOYfklIyv" name="Page-1">
    <mxGraphModel dx="4512" dy="1122" grid="1" gridSize="10" guides="1" tooltips="1" connect="1" arrows="1" fold="1" page="1" pageScale="1" pageWidth="850" pageHeight="1100" math="0" shadow="0">
      <root>
        <mxCell id="0" />
        <mxCell id="1" parent="0" />
        <mxCell id="2fgn_i0WhlB5PZqa1LY8-11" value="" style="rounded=0;whiteSpace=wrap;html=1;fillColor=none;" vertex="1" parent="1">
          <mxGeometry x="-1080" y="820" width="960" height="650" as="geometry" />
        </mxCell>
        <mxCell id="2fgn_i0WhlB5PZqa1LY8-10" value="" style="rounded=0;whiteSpace=wrap;html=1;fillColor=#f5f5f5;strokeColor=#666666;fontColor=#333333;" vertex="1" parent="1">
          <mxGeometry x="-1080" y="230" width="960" height="580" as="geometry" />
        </mxCell>
        <mxCell id="WNOsDTk-nys0i8xbJVlw-129" style="edgeStyle=orthogonalEdgeStyle;curved=1;orthogonalLoop=1;jettySize=auto;html=1;exitX=0.5;exitY=1;exitDx=0;exitDy=0;strokeColor=#000000;dashed=1;" parent="1" edge="1">
          <mxGeometry relative="1" as="geometry">
            <mxPoint x="-1820" y="372" as="targetPoint" />
            <mxPoint x="-1910" y="372" as="sourcePoint" />
          </mxGeometry>
        </mxCell>
        <mxCell id="WNOsDTk-nys0i8xbJVlw-130" value="mapping" style="text;html=1;align=center;verticalAlign=middle;resizable=0;points=[];autosize=1;" parent="1" vertex="1">
          <mxGeometry x="-1818" y="360" width="70" height="20" as="geometry" />
        </mxCell>
        <mxCell id="WNOsDTk-nys0i8xbJVlw-131" style="edgeStyle=orthogonalEdgeStyle;curved=1;orthogonalLoop=1;jettySize=auto;html=1;exitX=0.5;exitY=1;exitDx=0;exitDy=0;strokeColor=#000000;" parent="1" edge="1">
          <mxGeometry relative="1" as="geometry">
            <mxPoint x="-1820.0000000000002" y="412" as="targetPoint" />
            <mxPoint x="-1910.0000000000002" y="412" as="sourcePoint" />
          </mxGeometry>
        </mxCell>
        <mxCell id="WNOsDTk-nys0i8xbJVlw-132" value="structural containment" style="text;html=1;align=center;verticalAlign=middle;resizable=0;points=[];autosize=1;" parent="1" vertex="1">
          <mxGeometry x="-1823" y="400" width="160" height="20" as="geometry" />
        </mxCell>
        <mxCell id="WNOsDTk-nys0i8xbJVlw-160" value="&lt;b&gt;GENERAL ISSUES&lt;/b&gt;" style="text;html=1;align=center;verticalAlign=middle;resizable=0;points=[];autosize=1;" parent="1" vertex="1">
          <mxGeometry x="-1870" y="500" width="140" height="20" as="geometry" />
        </mxCell>
        <mxCell id="WNOsDTk-nys0i8xbJVlw-161" value="Compositions and Entries need a language, right now it is hardcoded to &quot;EN&quot;. One solution is the client library, since generates code by OPT, to set the language automatically in the class frm the OPT language. This works if the OPT supports just one language." style="shape=note;whiteSpace=wrap;html=1;backgroundOutline=1;darkOpacity=0.05;fillColor=#fff2cc;strokeColor=#d6b656;size=13;align=left;spacingLeft=4;" parent="1" vertex="1">
          <mxGeometry x="-1998" y="540" width="430" height="75" as="geometry" />
        </mxCell>
        <mxCell id="WNOsDTk-nys0i8xbJVlw-162" value="If the profile has more than one resource, it is difficult to map to one COMPOSITION in a RESTful way since FHIR does one request per resource. The workaround for now is the use the &quot;contained&quot; attribute to direct contain the children resources instead of including them by reference which is the most common option." style="shape=note;whiteSpace=wrap;html=1;backgroundOutline=1;darkOpacity=0.05;fillColor=#fff2cc;strokeColor=#d6b656;size=13;align=left;spacingLeft=4;" parent="1" vertex="1">
          <mxGeometry x="-1998" y="640" width="430" height="90" as="geometry" />
        </mxCell>
        <mxCell id="WNOsDTk-nys0i8xbJVlw-35" value="data point" style="ellipse;whiteSpace=wrap;html=1;aspect=fixed;fillColor=#d5e8d4;strokeColor=#82b366;" parent="1" vertex="1">
          <mxGeometry x="-1980" y="170" width="80" height="80" as="geometry" />
        </mxCell>
        <mxCell id="WNOsDTk-nys0i8xbJVlw-36" value="archetype" style="rounded=1;whiteSpace=wrap;html=1;fillColor=#ffe6cc;strokeColor=#d79b00;" parent="1" vertex="1">
          <mxGeometry x="-1865" y="180" width="125" height="60" as="geometry" />
        </mxCell>
        <mxCell id="WNOsDTk-nys0i8xbJVlw-37" value="template" style="rounded=1;whiteSpace=wrap;html=1;fillColor=#dae8fc;strokeColor=#6c8ebf;" parent="1" vertex="1">
          <mxGeometry x="-1710" y="180" width="120" height="60" as="geometry" />
        </mxCell>
        <mxCell id="WNOsDTk-nys0i8xbJVlw-38" value="profile" style="rounded=1;whiteSpace=wrap;html=1;fillColor=#f8cecc;strokeColor=#b85450;" parent="1" vertex="1">
          <mxGeometry x="-1865" y="270" width="124.5" height="60" as="geometry" />
        </mxCell>
        <mxCell id="WNOsDTk-nys0i8xbJVlw-39" value="note" style="shape=note;whiteSpace=wrap;html=1;backgroundOutline=1;darkOpacity=0.05;fillColor=#fff2cc;strokeColor=#d6b656;size=13;align=left;spacingLeft=4;" parent="1" vertex="1">
          <mxGeometry x="-1710" y="272.5" width="120" height="57.5" as="geometry" />
        </mxCell>
        <mxCell id="2" value="REFERENCE" style="text;html=1;align=center;verticalAlign=middle;resizable=0;points=[];autosize=1;fontStyle=1" parent="1" vertex="1">
          <mxGeometry x="-1852.5" y="120" width="100" height="20" as="geometry" />
        </mxCell>
        <mxCell id="WNOsDTk-nys0i8xbJVlw-103" value="reference" style="ellipse;whiteSpace=wrap;html=1;aspect=fixed;fillColor=#e1d5e7;strokeColor=#9673a6;" parent="1" vertex="1">
          <mxGeometry x="-1980" y="260" width="80" height="80" as="geometry" />
        </mxCell>
        <mxCell id="48C0j_drKvZkJ34L1-IZ-98" value="resource" style="rounded=1;whiteSpace=wrap;html=1;fillColor=#f5f5f5;strokeColor=#666666;fontColor=#333333;" parent="1" vertex="1">
          <mxGeometry x="-1568" y="270" width="124.5" height="60" as="geometry" />
        </mxCell>
        <mxCell id="BWCG1YFNvTNrp1tG9PvR-2" value="PatientInICU - &amp;nbsp;Observation" style="rounded=1;whiteSpace=wrap;html=1;fillColor=#f8cecc;strokeColor=#b85450;" parent="1" vertex="1">
          <mxGeometry x="-742.25" y="260" width="124.5" height="60" as="geometry" />
        </mxCell>
        <UserObject label="https://simplifier.net/forschungsnetzcovid-19/patientinicu" link="https://simplifier.net/forschungsnetzcovid-19/bloodpressure" id="BWCG1YFNvTNrp1tG9PvR-3">
          <mxCell style="shape=note;whiteSpace=wrap;html=1;backgroundOutline=1;darkOpacity=0.05;fillColor=#fff2cc;strokeColor=#d6b656;size=13;align=left;spacingLeft=4;" parent="1" vertex="1">
            <mxGeometry x="-510" y="270" width="240" height="50" as="geometry" />
          </mxCell>
        </UserObject>
        <mxCell id="BWCG1YFNvTNrp1tG9PvR-5" value="status:&lt;br&gt;code" style="ellipse;whiteSpace=wrap;html=1;aspect=fixed;fillColor=#d5e8d4;strokeColor=#82b366;" parent="1" vertex="1">
          <mxGeometry x="-960" y="400" width="80" height="80" as="geometry" />
        </mxCell>
        <mxCell id="h2Y0RTakNAgf0IYQmvkw-2" value="code:&amp;nbsp;&lt;br&gt;code" style="ellipse;whiteSpace=wrap;html=1;aspect=fixed;fillColor=#d5e8d4;strokeColor=#82b366;" parent="1" vertex="1">
          <mxGeometry x="-780" y="565" width="80" height="80" as="geometry" />
        </mxCell>
        <mxCell id="h2Y0RTakNAgf0IYQmvkw-8" style="edgeStyle=orthogonalEdgeStyle;curved=1;orthogonalLoop=1;jettySize=auto;html=1;exitX=0.5;exitY=1;exitDx=0;exitDy=0;strokeColor=#000000;entryX=0.5;entryY=0;entryDx=0;entryDy=0;entryPerimeter=0;" parent="1" source="BWCG1YFNvTNrp1tG9PvR-2" target="IjaonLrTJWPJzYlzKZe0-2" edge="1">
          <mxGeometry relative="1" as="geometry">
            <mxPoint x="-800" y="560" as="targetPoint" />
            <mxPoint x="-910" y="480" as="sourcePoint" />
            <Array as="points">
              <mxPoint x="-680" y="390" />
              <mxPoint x="-740" y="390" />
            </Array>
          </mxGeometry>
        </mxCell>
        <mxCell id="h2Y0RTakNAgf0IYQmvkw-9" value="subject: ref" style="ellipse;whiteSpace=wrap;html=1;aspect=fixed;fillColor=#e1d5e7;strokeColor=#9673a6;" parent="1" vertex="1">
          <mxGeometry x="-620" y="400" width="80" height="80" as="geometry" />
        </mxCell>
        <mxCell id="h2Y0RTakNAgf0IYQmvkw-10" style="edgeStyle=orthogonalEdgeStyle;curved=1;orthogonalLoop=1;jettySize=auto;html=1;strokeColor=#000000;entryX=0.5;entryY=0;entryDx=0;entryDy=0;exitX=0.5;exitY=1;exitDx=0;exitDy=0;" parent="1" source="BWCG1YFNvTNrp1tG9PvR-2" target="h2Y0RTakNAgf0IYQmvkw-9" edge="1">
          <mxGeometry relative="1" as="geometry">
            <mxPoint x="-760" y="580" as="targetPoint" />
            <mxPoint x="-910" y="490" as="sourcePoint" />
            <Array as="points">
              <mxPoint x="-680" y="350" />
              <mxPoint x="-580" y="350" />
            </Array>
          </mxGeometry>
        </mxCell>
        <mxCell id="h2Y0RTakNAgf0IYQmvkw-11" style="edgeStyle=orthogonalEdgeStyle;curved=1;orthogonalLoop=1;jettySize=auto;html=1;strokeColor=#000000;entryX=0.5;entryY=0;entryDx=0;entryDy=0;exitX=0.5;exitY=1;exitDx=0;exitDy=0;" parent="1" target="BWCG1YFNvTNrp1tG9PvR-5" edge="1">
          <mxGeometry relative="1" as="geometry">
            <mxPoint x="-890" y="400" as="targetPoint" />
            <mxPoint x="-680" y="320" as="sourcePoint" />
            <Array as="points">
              <mxPoint x="-680" y="360" />
              <mxPoint x="-920" y="360" />
            </Array>
          </mxGeometry>
        </mxCell>
        <mxCell id="h2Y0RTakNAgf0IYQmvkw-13" value="effective: dateTime" style="ellipse;whiteSpace=wrap;html=1;aspect=fixed;fillColor=#d5e8d4;strokeColor=#82b366;" parent="1" vertex="1">
          <mxGeometry x="-480" y="400" width="80" height="80" as="geometry" />
        </mxCell>
        <mxCell id="h2Y0RTakNAgf0IYQmvkw-14" style="edgeStyle=orthogonalEdgeStyle;curved=1;orthogonalLoop=1;jettySize=auto;html=1;strokeColor=#000000;entryX=0.5;entryY=0;entryDx=0;entryDy=0;exitX=0.5;exitY=1;exitDx=0;exitDy=0;" parent="1" source="BWCG1YFNvTNrp1tG9PvR-2" target="h2Y0RTakNAgf0IYQmvkw-13" edge="1">
          <mxGeometry relative="1" as="geometry">
            <mxPoint x="-570" y="410" as="targetPoint" />
            <mxPoint x="-670" y="330" as="sourcePoint" />
            <Array as="points">
              <mxPoint x="-680" y="330" />
              <mxPoint x="-440" y="330" />
            </Array>
          </mxGeometry>
        </mxCell>
        <mxCell id="h2Y0RTakNAgf0IYQmvkw-18" value="statusDefining-&lt;br&gt;Code: String" style="ellipse;whiteSpace=wrap;html=1;aspect=fixed;fillColor=#d5e8d4;strokeColor=#82b366;" parent="1" vertex="1">
          <mxGeometry x="-960" y="887.5" width="80" height="80" as="geometry" />
        </mxCell>
        <mxCell id="h2Y0RTakNAgf0IYQmvkw-20" value="nameDer-&lt;br&gt;Aktivitat-&lt;br&gt;Value: String" style="ellipse;whiteSpace=wrap;html=1;aspect=fixed;fillColor=#d5e8d4;strokeColor=#82b366;" parent="1" vertex="1">
          <mxGeometry x="-640" y="880" width="80" height="80" as="geometry" />
        </mxCell>
        <mxCell id="h2Y0RTakNAgf0IYQmvkw-21" value="&lt;p style=&quot;font-size: 10.000000953674316px&quot;&gt;&lt;span style=&quot;color: rgb(36 , 41 , 46) ; font-size: 10.000000953674316px&quot;&gt;&lt;font style=&quot;font-size: 10.000000953674316px&quot;&gt;&lt;br&gt;&lt;/font&gt;&lt;/span&gt;&lt;/p&gt;&lt;p style=&quot;font-size: 10.000000953674316px&quot;&gt;&lt;span style=&quot;color: rgb(36 , 41 , 46) ; font-size: 10.000000953674316px&quot;&gt;&lt;font style=&quot;font-size: 10.000000953674316px&quot;&gt;&lt;br&gt;&lt;/font&gt;&lt;/span&gt;&lt;/p&gt;&lt;p style=&quot;font-size: 10.000000953674316px&quot;&gt;&lt;span style=&quot;color: rgb(36 , 41 , 46) ; font-size: 10.000000953674316px&quot;&gt;&lt;font style=&quot;font-size: 10.000000953674316px&quot;&gt;Wurde&lt;/font&gt;&lt;/span&gt;&lt;span style=&quot;font-size: 10.000000953674316px ; color: rgb(36 , 41 , 46)&quot;&gt;Die&lt;/span&gt;&lt;span style=&quot;font-size: 10.000000953674316px ; color: rgb(36 , 41 , 46)&quot;&gt;Aktivitat-Durchgefuhrt-Defining-code:&lt;/span&gt;&lt;span style=&quot;font-size: 10.000000953674316px ; color: rgb(36 , 41 , 46)&quot;&gt;Enum-ValueSet&lt;/span&gt;&lt;/p&gt;&lt;p&gt;&lt;span style=&quot;color: rgb(36 , 41 , 46)&quot;&gt;&lt;font style=&quot;font-size: 10.000000953674316px&quot;&gt;&lt;br&gt;&lt;/font&gt;&lt;/span&gt;&lt;/p&gt;" style="ellipse;whiteSpace=wrap;html=1;aspect=fixed;fillColor=#d5e8d4;strokeColor=#82b366;" parent="1" vertex="1">
          <mxGeometry x="-787.5" y="880" width="95" height="95" as="geometry" />
        </mxCell>
        <mxCell id="h2Y0RTakNAgf0IYQmvkw-26" value="start- timeValue: DateTime" style="ellipse;whiteSpace=wrap;html=1;aspect=fixed;fillColor=#d5e8d4;strokeColor=#82b366;" parent="1" vertex="1">
          <mxGeometry x="-270" y="887.5" width="80" height="80" as="geometry" />
        </mxCell>
        <mxCell id="h2Y0RTakNAgf0IYQmvkw-27" style="edgeStyle=orthogonalEdgeStyle;curved=1;orthogonalLoop=1;jettySize=auto;html=1;exitX=0.5;exitY=0;exitDx=0;exitDy=0;strokeColor=#000000;entryX=0.5;entryY=1;entryDx=0;entryDy=0;" parent="1" source="2fgn_i0WhlB5PZqa1LY8-5" target="h2Y0RTakNAgf0IYQmvkw-20" edge="1">
          <mxGeometry relative="1" as="geometry">
            <mxPoint x="-310" y="660" as="targetPoint" />
            <mxPoint x="-210" y="580" as="sourcePoint" />
            <Array as="points">
              <mxPoint x="-650" y="1010" />
              <mxPoint x="-600" y="1010" />
            </Array>
          </mxGeometry>
        </mxCell>
        <mxCell id="h2Y0RTakNAgf0IYQmvkw-34" style="edgeStyle=orthogonalEdgeStyle;curved=1;orthogonalLoop=1;jettySize=auto;html=1;exitX=0.5;exitY=0;exitDx=0;exitDy=0;strokeColor=#000000;entryX=0.5;entryY=1;entryDx=0;entryDy=0;" parent="1" source="2fgn_i0WhlB5PZqa1LY8-3" target="h2Y0RTakNAgf0IYQmvkw-18" edge="1">
          <mxGeometry relative="1" as="geometry">
            <mxPoint x="-920" y="980" as="targetPoint" />
            <mxPoint y="450" as="sourcePoint" />
            <Array as="points">
              <mxPoint x="-670" y="1140" />
              <mxPoint x="-920" y="1140" />
            </Array>
          </mxGeometry>
        </mxCell>
        <mxCell id="h2Y0RTakNAgf0IYQmvkw-36" style="edgeStyle=orthogonalEdgeStyle;curved=1;orthogonalLoop=1;jettySize=auto;html=1;exitX=0.5;exitY=0;exitDx=0;exitDy=0;strokeColor=#000000;entryX=0.5;entryY=1;entryDx=0;entryDy=0;" parent="1" source="2fgn_i0WhlB5PZqa1LY8-3" target="h2Y0RTakNAgf0IYQmvkw-26" edge="1">
          <mxGeometry relative="1" as="geometry">
            <mxPoint x="-440" y="980" as="targetPoint" />
            <mxPoint y="450" as="sourcePoint" />
            <Array as="points">
              <mxPoint x="-670" y="1210" />
              <mxPoint x="-230" y="1210" />
            </Array>
          </mxGeometry>
        </mxCell>
        <mxCell id="h2Y0RTakNAgf0IYQmvkw-43" style="edgeStyle=orthogonalEdgeStyle;curved=1;orthogonalLoop=1;jettySize=auto;html=1;exitX=0.5;exitY=1;exitDx=0;exitDy=0;dashed=1;entryX=0.5;entryY=0;entryDx=0;entryDy=0;" parent="1" source="BWCG1YFNvTNrp1tG9PvR-5" target="h2Y0RTakNAgf0IYQmvkw-18" edge="1">
          <mxGeometry relative="1" as="geometry">
            <mxPoint x="-180" y="730" as="targetPoint" />
            <mxPoint x="-660" y="810" as="sourcePoint" />
            <Array as="points">
              <mxPoint x="-920" y="888" />
            </Array>
          </mxGeometry>
        </mxCell>
        <mxCell id="h2Y0RTakNAgf0IYQmvkw-44" style="edgeStyle=orthogonalEdgeStyle;curved=1;orthogonalLoop=1;jettySize=auto;html=1;exitX=0.5;exitY=1;exitDx=0;exitDy=0;dashed=1;" parent="1" source="h2Y0RTakNAgf0IYQmvkw-2" edge="1">
          <mxGeometry relative="1" as="geometry">
            <mxPoint x="-740" y="880" as="targetPoint" />
            <mxPoint x="-430" y="490" as="sourcePoint" />
            <Array as="points">
              <mxPoint x="-740" y="830" />
              <mxPoint x="-740" y="830" />
            </Array>
          </mxGeometry>
        </mxCell>
        <mxCell id="h2Y0RTakNAgf0IYQmvkw-45" style="edgeStyle=orthogonalEdgeStyle;curved=1;orthogonalLoop=1;jettySize=auto;html=1;exitX=0.5;exitY=1;exitDx=0;exitDy=0;dashed=1;entryX=0.5;entryY=0;entryDx=0;entryDy=0;" parent="1" source="h2Y0RTakNAgf0IYQmvkw-13" target="h2Y0RTakNAgf0IYQmvkw-26" edge="1">
          <mxGeometry relative="1" as="geometry">
            <mxPoint x="460" y="730" as="targetPoint" />
            <mxPoint x="-430" y="490" as="sourcePoint" />
            <Array as="points">
              <mxPoint x="-440" y="830" />
              <mxPoint x="-230" y="830" />
            </Array>
          </mxGeometry>
        </mxCell>
        <mxCell id="IjaonLrTJWPJzYlzKZe0-2" value="&lt;font style=&quot;font-size: 11.000000953674316px&quot;&gt;value-Codeable-&lt;br&gt;Concept:&lt;br&gt;codeable-&lt;br&gt;Concept&lt;/font&gt;" style="ellipse;whiteSpace=wrap;html=1;aspect=fixed;fillColor=#d5e8d4;strokeColor=#82b366;" parent="1" vertex="1">
          <mxGeometry x="-780" y="400" width="80" height="80" as="geometry" />
        </mxCell>
        <mxCell id="IjaonLrTJWPJzYlzKZe0-4" value="" style="endArrow=classic;html=1;exitX=0.5;exitY=1;exitDx=0;exitDy=0;entryX=0.5;entryY=0;entryDx=0;entryDy=0;" parent="1" source="IjaonLrTJWPJzYlzKZe0-2" target="h2Y0RTakNAgf0IYQmvkw-2" edge="1">
          <mxGeometry width="50" height="50" relative="1" as="geometry">
            <mxPoint x="-620" y="630" as="sourcePoint" />
            <mxPoint x="-570" y="580" as="targetPoint" />
          </mxGeometry>
        </mxCell>
        <mxCell id="GvtldfbDIdU1Wc1KAc5i-2" value="timeValue:&lt;br&gt;Temporal-&lt;br&gt;Accessor" style="ellipse;whiteSpace=wrap;html=1;aspect=fixed;fillColor=#d5e8d4;strokeColor=#82b366;" parent="1" vertex="1">
          <mxGeometry x="-510" y="880" width="80" height="80" as="geometry" />
        </mxCell>
        <mxCell id="GvtldfbDIdU1Wc1KAc5i-3" value="originValue:&lt;br&gt;Temporal-&lt;br&gt;Accessor" style="ellipse;whiteSpace=wrap;html=1;aspect=fixed;fillColor=#d5e8d4;strokeColor=#82b366;" parent="1" vertex="1">
          <mxGeometry x="-390" y="880" width="80" height="80" as="geometry" />
        </mxCell>
        <mxCell id="GvtldfbDIdU1Wc1KAc5i-7" style="edgeStyle=orthogonalEdgeStyle;curved=1;orthogonalLoop=1;jettySize=auto;html=1;exitX=0.5;exitY=1;exitDx=0;exitDy=0;dashed=1;entryX=0.5;entryY=0;entryDx=0;entryDy=0;" parent="1" source="h2Y0RTakNAgf0IYQmvkw-13" target="GvtldfbDIdU1Wc1KAc5i-2" edge="1">
          <mxGeometry relative="1" as="geometry">
            <mxPoint x="-172.5" y="745" as="targetPoint" />
            <mxPoint x="-730" y="655" as="sourcePoint" />
            <Array as="points">
              <mxPoint x="-470" y="480" />
            </Array>
          </mxGeometry>
        </mxCell>
        <mxCell id="GvtldfbDIdU1Wc1KAc5i-8" style="edgeStyle=orthogonalEdgeStyle;curved=1;orthogonalLoop=1;jettySize=auto;html=1;exitX=0.5;exitY=1;exitDx=0;exitDy=0;dashed=1;entryX=0.5;entryY=0;entryDx=0;entryDy=0;" parent="1" source="h2Y0RTakNAgf0IYQmvkw-13" target="GvtldfbDIdU1Wc1KAc5i-3" edge="1">
          <mxGeometry relative="1" as="geometry">
            <mxPoint x="-50" y="730" as="targetPoint" />
            <mxPoint x="-430" y="490" as="sourcePoint" />
            <Array as="points">
              <mxPoint x="-440" y="490" />
              <mxPoint x="-460" y="490" />
              <mxPoint x="-460" y="850" />
              <mxPoint x="-350" y="850" />
            </Array>
          </mxGeometry>
        </mxCell>
        <mxCell id="2fgn_i0WhlB5PZqa1LY8-2" value="Patient in ICU" style="rounded=1;whiteSpace=wrap;html=1;fillColor=#dae8fc;strokeColor=#6c8ebf;" vertex="1" parent="1">
          <mxGeometry x="-770" y="1400" width="200" height="60" as="geometry" />
        </mxCell>
        <mxCell id="2fgn_i0WhlB5PZqa1LY8-3" value="&lt;div class=&quot;cm-node-details-value cm-node-details-arch-id&quot;&gt;openEHR-EHR-COMPOSITION.report-result.v1&lt;/div&gt;" style="rounded=1;whiteSpace=wrap;html=1;fillColor=#ffe6cc;strokeColor=#d79b00;" vertex="1" parent="1">
          <mxGeometry x="-770" y="1260" width="200" height="60" as="geometry" />
        </mxCell>
        <mxCell id="2fgn_i0WhlB5PZqa1LY8-4" value="" style="endArrow=classic;html=1;exitX=0.5;exitY=0;exitDx=0;exitDy=0;entryX=0.5;entryY=1;entryDx=0;entryDy=0;" edge="1" parent="1" source="2fgn_i0WhlB5PZqa1LY8-2" target="2fgn_i0WhlB5PZqa1LY8-3">
          <mxGeometry width="50" height="50" relative="1" as="geometry">
            <mxPoint x="-660" y="1370" as="sourcePoint" />
            <mxPoint x="-660" y="1430" as="targetPoint" />
            <Array as="points" />
          </mxGeometry>
        </mxCell>
        <mxCell id="2fgn_i0WhlB5PZqa1LY8-5" value="&lt;div class=&quot;cm-node-details-value cm-node-details-arch-id&quot;&gt;&lt;span style=&quot;font-family: &amp;#34;tahoma&amp;#34; , &amp;#34;arial&amp;#34; , &amp;#34;helvetica&amp;#34; , sans-serif ; font-size: 11px&quot;&gt;openEHR-EHR-OBSERVATION.management_screening.v0&lt;/span&gt;&lt;br&gt;&lt;/div&gt;" style="rounded=1;whiteSpace=wrap;html=1;fillColor=#ffe6cc;strokeColor=#d79b00;" vertex="1" parent="1">
          <mxGeometry x="-760" y="1050" width="220" height="60" as="geometry" />
        </mxCell>
        <mxCell id="2fgn_i0WhlB5PZqa1LY8-6" style="edgeStyle=orthogonalEdgeStyle;curved=1;orthogonalLoop=1;jettySize=auto;html=1;exitX=0.5;exitY=0;exitDx=0;exitDy=0;strokeColor=#000000;entryX=0.5;entryY=1;entryDx=0;entryDy=0;" edge="1" parent="1" source="2fgn_i0WhlB5PZqa1LY8-3" target="2fgn_i0WhlB5PZqa1LY8-5">
          <mxGeometry relative="1" as="geometry">
            <mxPoint x="-800" y="1270" as="targetPoint" />
            <mxPoint x="-650" y="1190" as="sourcePoint" />
            <Array as="points">
              <mxPoint x="-670" y="1230" />
              <mxPoint x="-650" y="1230" />
            </Array>
          </mxGeometry>
        </mxCell>
        <mxCell id="2fgn_i0WhlB5PZqa1LY8-7" style="edgeStyle=orthogonalEdgeStyle;curved=1;orthogonalLoop=1;jettySize=auto;html=1;exitX=0.5;exitY=0;exitDx=0;exitDy=0;strokeColor=#000000;entryX=0.5;entryY=1;entryDx=0;entryDy=0;" edge="1" parent="1" source="2fgn_i0WhlB5PZqa1LY8-5" target="h2Y0RTakNAgf0IYQmvkw-21">
          <mxGeometry relative="1" as="geometry">
            <mxPoint x="-930" y="1080" as="targetPoint" />
            <mxPoint x="-800" y="1000" as="sourcePoint" />
            <Array as="points">
              <mxPoint x="-650" y="1010" />
              <mxPoint x="-740" y="1010" />
            </Array>
          </mxGeometry>
        </mxCell>
        <mxCell id="2fgn_i0WhlB5PZqa1LY8-8" style="edgeStyle=orthogonalEdgeStyle;curved=1;orthogonalLoop=1;jettySize=auto;html=1;strokeColor=#000000;exitX=0.5;exitY=0;exitDx=0;exitDy=0;entryX=0.5;entryY=1;entryDx=0;entryDy=0;" edge="1" parent="1" source="2fgn_i0WhlB5PZqa1LY8-5" target="GvtldfbDIdU1Wc1KAc5i-2">
          <mxGeometry relative="1" as="geometry">
            <mxPoint x="-440" y="1070" as="targetPoint" />
            <mxPoint x="-460" y="1020" as="sourcePoint" />
            <Array as="points">
              <mxPoint x="-650" y="1040" />
              <mxPoint x="-470" y="1040" />
            </Array>
          </mxGeometry>
        </mxCell>
        <mxCell id="2fgn_i0WhlB5PZqa1LY8-9" style="edgeStyle=orthogonalEdgeStyle;curved=1;orthogonalLoop=1;jettySize=auto;html=1;strokeColor=#000000;exitX=0.5;exitY=0;exitDx=0;exitDy=0;entryX=0.5;entryY=1;entryDx=0;entryDy=0;" edge="1" parent="1" source="2fgn_i0WhlB5PZqa1LY8-5" target="GvtldfbDIdU1Wc1KAc5i-3">
          <mxGeometry relative="1" as="geometry">
            <mxPoint x="-260" y="1070" as="targetPoint" />
            <mxPoint x="-390" y="1020" as="sourcePoint" />
            <Array as="points">
              <mxPoint x="-650" y="1040" />
              <mxPoint x="-350" y="1040" />
            </Array>
          </mxGeometry>
        </mxCell>
      </root>
    </mxGraphModel>
  </diagram>
</mxfile>
